<?xml version="1.0" encoding="UTF-8" standalone="no"?>
<svg width="24px" height="24px" viewBox="0 0 24 24" version="1.1" xmlns="http://www.w3.org/2000/svg" xmlns:xlink="http://www.w3.org/1999/xlink" xmlns:sketch="http://www.bohemiancoding.com/sketch/ns">
    <!-- Generator: Sketch 3.3.3 (12081) - http://www.bohemiancoding.com/sketch -->
    <title>Artboard 1</title>
    <desc>Created with Sketch.</desc>
    <defs></defs>
    <g id="Page-1" stroke="none" stroke-width="1" fill="none" fill-rule="evenodd" sketch:type="MSPage">
        <g id="Artboard-1" sketch:type="MSArtboardGroup" fill="#FFFFFF">
            <path d="M6.313,1.343 C5.909,1.343 5.582,1.683 5.582,2.103 L5.582,4.87 C5.582,4.87 2.052,4.869 2.028,4.87 C1.673,4.906 1.395,5.203 1.37,5.573 C1.231,7.725 1.472,9.593 2.347,11.03 C3.222,12.468 4.745,13.359 6.797,13.531 C7.133,13.953 7.511,14.311 7.875,14.633 C8.498,15.185 9.094,15.662 9.501,16.135 C9.809,16.493 10.006,16.825 10.095,17.229 C7.663,17.99 5.616,19.347 4.549,21.564 C4.368,21.939 4.513,22.396 4.873,22.585 C4.974,22.638 5.085,22.666 5.198,22.667 L18.802,22.667 C19.206,22.664 19.531,22.322 19.529,21.902 C19.528,21.784 19.501,21.669 19.451,21.564 C18.384,19.347 16.337,17.99 13.905,17.229 C13.994,16.825 14.191,16.493 14.499,16.135 C14.906,15.662 15.502,15.184 16.125,14.633 C16.487,14.313 16.859,13.951 17.194,13.531 C17.195,13.528 17.202,13.534 17.203,13.531 C19.255,13.359 20.778,12.468 21.653,11.03 C22.528,9.593 22.769,7.725 22.63,5.573 C22.601,5.176 22.282,4.869 21.899,4.87 L18.418,4.87 L18.418,2.103 C18.423,1.683 18.1,1.339 17.697,1.333 C17.69,1.333 6.313,1.343 6.313,1.343 L6.313,1.343 Z M2.813,6.391 L5.582,6.391 C5.582,6.391 5.616,11.137 5.865,11.848 C4.77,11.571 4.065,11.018 3.581,10.222 C3.036,9.327 2.787,8.015 2.813,6.391 L2.813,6.391 Z M18.418,6.391 L21.187,6.391 C21.213,8.015 20.964,9.327 20.419,10.222 C19.935,11.018 19.23,11.571 18.135,11.848 C18.384,11.137 18.418,6.391 18.418,6.391 L18.418,6.391 Z" id="Fill-1" sketch:type="MSShapeGroup"></path>
        </g>
    </g>
</svg>